<svg xmlns="http://www.w3.org/2000/svg" viewBox="0 0 600 600" width="100%" height="100%">
  <defs>
    <radialGradient id="bg" cx="50%" cy="50%" r="70%">
      <stop offset="0%" stop-color="#2c2c30"/>
      <stop offset="100%" stop-color="#121215"/>
    </radialGradient>
    <linearGradient id="white_bottle" x1="0" y1="0" x2="1" y2="0">
      <stop offset="0%" stop-color="#dedee4"/>
      <stop offset="40%" stop-color="#ffffff"/>
      <stop offset="70%" stop-color="#efeff5"/>
      <stop offset="100%" stop-color="#cccccc"/>
    </linearGradient>
  </defs>
  <rect width="600" height="600" fill="url(#bg)"/>
  <ellipse cx="300" cy="530" rx="105" ry="20" fill="#000000" opacity="0.6"/>
  <!-- Black Pump -->
  <rect x="285" y="60" width="30" height="15" fill="#111111"/>
  <rect x="260" y="75" width="80" height="12" fill="#222222"/>
  <rect x="290" y="87" width="20" height="40" fill="#111111"/>
  <rect x="270" y="127" width="60" height="25" rx="3" fill="#333333"/>
  <!-- White Bottle Body (500ml larger) -->
  <path d="M 225 152 C 225 180, 200 210, 200 270 L 200 485 C 200 520, 400 520, 400 485 L 400 270 C 400 210, 375 180, 375 152 Z" fill="url(#white_bottle)"/>
  <text x="300" y="240" font-family="'Helvetica Neue', Arial, sans-serif" font-weight="800" font-size="17" fill="#111111" text-anchor="middle" letter-spacing="1">KÉRASTASE</text>
  <text x="300" y="253" font-family="'Helvetica Neue', Arial, sans-serif" font-weight="600" font-size="7.5" fill="#111111" text-anchor="middle" letter-spacing="2">PARIS</text>
  <text x="300" y="278" font-family="'Helvetica Neue', Arial, sans-serif" font-weight="700" font-size="11" fill="#222222" text-anchor="middle" letter-spacing="1.5">PREMIÈRE</text>
  <text x="300" y="310" font-family="'Helvetica Neue', Arial, sans-serif" font-weight="800" font-size="12.5" fill="#111111" text-anchor="middle">BAIN DÉCALCIFIANT</text>
  <text x="300" y="326" font-family="'Helvetica Neue', Arial, sans-serif" font-weight="800" font-size="11.5" fill="#111111" text-anchor="middle">RÉPARATEUR</text>
  <text x="300" y="348" font-family="'Helvetica Neue', Arial, sans-serif" font-size="7" fill="#666666" text-anchor="middle">ACIDE CITRIQUE + GLYCINE</text>
  <text x="300" y="380" font-family="'Helvetica Neue', Arial, sans-serif" font-size="7" fill="#222222" text-anchor="middle">Shampooing décalcifiant réparateur</text>
  <text x="300" y="393" font-family="'Helvetica Neue', Arial, sans-serif" font-size="7" fill="#222222" text-anchor="middle">Decalcifying repairing shampoo</text>
  <text x="300" y="475" font-family="'Helvetica Neue', Arial, sans-serif" font-size="8" fill="#444444" text-anchor="middle">500 ml 16.9 fl.oz.</text>
</svg>
