<svg xmlns="http://www.w3.org/2000/svg" viewBox="0 0 600 600" width="100%" height="100%">
  <defs>
    <radialGradient id="bg" cx="50%" cy="50%" r="70%">
      <stop offset="0%" stop-color="#2c2720"/>
      <stop offset="100%" stop-color="#12100d"/>
    </radialGradient>
    <linearGradient id="bottle" x1="0" y1="0" x2="1" y2="0">
      <stop offset="0%" stop-color="#1c1611"/>
      <stop offset="25%" stop-color="#4d3b28"/>
      <stop offset="50%" stop-color="#33271a"/>
      <stop offset="85%" stop-color="#140f0a"/>
      <stop offset="100%" stop-color="#0a0805"/>
    </linearGradient>
    <linearGradient id="label" x1="0" y1="0" x2="1" y2="0">
      <stop offset="0%" stop-color="#b09978"/>
      <stop offset="50%" stop-color="#ccb695"/>
      <stop offset="100%" stop-color="#8f7a5b"/>
    </linearGradient>
  </defs>
  <rect width="600" height="600" fill="url(#bg)"/>
  <ellipse cx="300" cy="540" rx="160" ry="28" fill="#000000" opacity="0.6"/>
  <!-- Wide 500ml Bottle Body -->
  <path d="M200 190 Q200 150 260 140 L260 100 L340 100 L340 140 Q400 150 400 190 L400 500 Q400 520 380 525 L220 525 Q200 520 200 500 Z" fill="url(#bottle)"/>
  <rect x="260" y="60" width="80" height="42" rx="4" fill="#15120e" stroke="#2a2218" stroke-width="2"/>
  <!-- Label -->
  <rect x="210" y="190" width="180" height="280" fill="url(#label)" rx="2"/>
  <rect x="310" y="195" width="28" height="22" fill="#d97262" opacity="0.8" rx="1"/>
  <rect x="342" y="195" width="28" height="22" fill="#62a3d9" opacity="0.8" rx="1"/>
  <text x="300" y="250" font-family="'Helvetica Neue', Arial, sans-serif" font-weight="700" font-size="34" fill="#362919" text-anchor="middle" letter-spacing="1">nashi</text>
  <text x="300" y="275" font-family="'Helvetica Neue', Arial, sans-serif" font-weight="400" font-size="20" fill="#362919" text-anchor="middle" letter-spacing="5">ARGAN</text>
  <text x="300" y="305" font-family="'Georgia', serif" font-style="italic" font-size="10" fill="#362919" text-anchor="middle">Trattamento di bellezza per tutti i tipi di capello</text>
  <text x="300" y="318" font-family="'Georgia', serif" font-style="italic" font-size="9" fill="#362919" text-anchor="middle">Beauty treatment for all kind of hair</text>
  <text x="300" y="352" font-family="'Georgia', serif" font-style="italic" font-size="22" fill="#362919" text-anchor="middle">conditioner</text>
  <text x="300" y="375" font-family="'Helvetica Neue', Arial, sans-serif" font-weight="700" font-size="12" fill="#362919" text-anchor="middle">500 ml</text>
  <circle cx="300" cy="422" r="32" fill="none" stroke="#ffffff" stroke-width="2"/>
  <text x="300" y="427" font-family="'Helvetica Neue', Arial, sans-serif" font-weight="800" font-size="10" fill="#ffffff" text-anchor="middle" letter-spacing="1">ARGAN</text>
</svg>
